<svg role="img" xmlns="http://www.w3.org/2000/svg" preserveAspectRatio="xMinYMin meet" aria-labelledby="xeho91-avatar-title xeho91-avatar-description" id="xeho91-avatar" viewBox="0 0 100 100"><style global="">html,
		html[data-color-scheme="light"] {
			svg {
				color-scheme: light;
			}
		}
		html[data-color-scheme="dark"] {
			svg {
				color-scheme: dark;
			}
		}</style><title id="xeho91-avatar-title">xeho91's avatar</title><desc id="xeho91-avatar-description">In the style of quickly using a paintbrush on the wall. It's written "x" in uppercase.'</desc><defs><!----><linearGradient gradientUnits="objectBoundingBox" spreadMethod="pad" id="xeho91-avatar-gradient" gradientTransform="rotate(90)" style="--light-1: oklch(55.56% 45.73% 305.86deg / 100%); --light-2: oklch(58.94% 46.23% 330.65deg / 100%); --light-3: oklch(62.32% 46.73% 355.44deg / 100%); --light-4: oklch(65.7% 47.23% 380.23deg / 100%); --light-5: oklch(69.08% 47.73% 405.02deg / 100%); --dark-1: oklch(55.56% 45.73% 305.86deg / 100%); --dark-2: oklch(58.94% 46.23% 330.65deg / 100%); --dark-3: oklch(62.32% 46.73% 355.44deg / 100%); --dark-4: oklch(65.7% 47.23% 380.23deg / 100%); --dark-5: oklch(69.08% 47.73% 405.02deg / 100%); --gradient-stop-1: light-dark(var(--light-1), var(--dark-1)); --gradient-stop-2: light-dark(var(--light-2), var(--dark-2)); --gradient-stop-3: light-dark(var(--light-3), var(--dark-3)); --gradient-stop-4: light-dark(var(--light-4), var(--dark-4)); --gradient-stop-5: light-dark(var(--light-5), var(--dark-5));"><stop offset="20%" stop-color="var(--gradient-stop-1)"></stop><stop offset="40%" stop-color="var(--gradient-stop-2)"></stop><stop offset="60%" stop-color="var(--gradient-stop-3)"></stop><stop offset="80%" stop-color="var(--gradient-stop-4)"></stop><stop offset="100%" stop-color="var(--gradient-stop-5)"></stop><!----><!----></linearGradient><!----><filter filterUnits="userSpaceOnUse" id="xeho91-avatar-shadow"><feDropShadow flood-color="gray" flood-opacity="39.61" dx="1" dy="1" stdDeviation="1.5"></feDropShadow></filter><!----><!----><symbol id="xeho91-avatar-frame"><path d="M 96.5,50 a 46.5,46.5 0 1 0 0,0.001
M 90.5,50 a 40.5,40.5 0 1 0 0 0.001"></path><!----></symbol><!----><symbol id="xeho91-avatar-logomark"><path d="M42.292,55.969C38.893,51.889,31.612,50.117,29.647,43.156C27.795,39.474,25.522,36.067,23.106,32.355C21.345,28.687,17.138,25.659,13.987,24.238C4.961,18.058,6.991,27.939,9.890,33.186C11.425,35.519,14.074,41.168,15.802,43.898C16.200,49.693,23.864,50.127,24.305,53.005C29.959,55.136,32.348,56.386,38.913,57.876C41.117,58.119,43.473,58.786,42.292,55.969ZZ M13.407,40.613C11.429,45.224,10.030,48.135,15.042,42.201C13.902,39.239,10.520,37.828,13.407,40.613ZZM12.099,40.507C10.630,39.986,11.536,42.157,12.099,40.507ZZM8.610,46.967C13.311,41.368,8.377,43.596,8.610,46.967ZZM8.610,50.038C9.911,50.128,8.235,48.349,8.610,50.038ZZM6.212,50.673C5.186,46.201,4.447,55.499,6.212,50.673ZZM5.122,54.485C6.715,54.925,5.002,53.308,5.122,54.485ZZM11.336,50.673C9.555,50.301,11.614,52.282,11.336,50.673ZZM10.682,46.331C9.490,46.233,11.023,47.714,10.682,46.331ZZM7.520,46.543C5.195,46.190,8.001,49.114,7.520,46.543ZZM3.705,54.274C5.521,53.697,1.368,52.628,3.705,54.274ZZM22.564,30.871C22.950,33.400,23.348,28.693,22.564,30.871ZZM29.977,20.070C28.278,19.655,29.947,21.126,29.977,20.070ZZM45.021,26.847C47.722,27.228,45.643,25.100,45.021,26.847ZZM3.053,53.957C1.861,53.859,3.394,55.340,3.053,53.957ZZM32.376,40.614C31.184,40.516,32.718,41.997,32.376,40.614ZZM33.685,38.920C34.511,40.253,34.656,37.057,33.685,38.920ZZM17.550,61.264C16.205,61.538,17.999,61.926,17.550,61.264ZZM17.114,61.476C16.785,61.187,16.842,61.943,17.114,61.476ZZM38.154,33.308C35.528,37.303,40.534,33.158,38.154,33.308ZZM32.050,42.626C34.940,41.768,33.942,37.228,32.050,42.626ZZM23.001,51.416C20.352,55.323,17.877,60.477,15.479,60.840C18.613,61.789,17.100,68.636,14.221,69.701C14.195,70.944,15.752,75.152,13.844,75.030C9.758,76.851,6.544,72.737,4.510,71.721C1.972,67.326,4.994,62.212,5.123,58.299C8.698,53.234,12.772,51.307,12.931,49.205C14.097,46.209,14.304,54.967,9.702,57.345C12.787,54.568,15.126,51.533,17.114,46.968C10.833,51.138,15.218,39.250,17.986,47.603C24.121,49.688,17.122,58.207,22.238,51.203C20.699,50.288,22.602,51.289,23.001,51.416ZZM9.920,53.957C12.358,54.123,10.348,52.195,9.920,53.957ZZM8.284,57.028C11.019,56.147,8.020,52.635,8.284,56.904ZM6.213,61.158C9.721,59.322,6.133,58.480,6.213,61.158ZZM5.886,61.899C7.585,62.314,5.916,60.843,5.886,61.899ZZM4.905,63.276C6.206,63.366,4.530,61.587,4.905,63.276ZZM5.450,71.853C4.150,71.763,5.826,73.542,5.450,71.853ZZM5.450,70.265C4.150,70.175,5.826,71.954,5.450,70.265ZZM5.450,68.147C2.422,66.528,6.674,70.763,5.450,68.147ZZM6.540,63.382C7.065,60.051,3.729,64.136,6.540,63.382ZZM6.867,68.147C5.567,68.057,7.243,69.836,6.867,68.147ZZM6.867,64.017C8.085,64.291,6.832,62.552,6.867,64.017ZZM7.957,71.218C8.957,71.207,7.769,68.889,7.957,71.218ZZM7.957,69.948C8.061,67.102,5.986,69.517,7.957,69.948ZZM7.957,66.559C6.657,66.469,8.333,68.248,7.957,66.559ZZM7.194,68.148C8.654,68.754,7.845,66.384,7.194,68.148ZZM8.284,73.972C7.795,72.813,6.507,73.686,8.284,73.972ZZM8.611,62.853C7.098,63.452,9.179,65.055,8.611,62.853ZZM10.356,58.087C6.188,58.445,7.741,66.911,9.252,59.358L10.356,58.087ZZM12.427,55.122C11.126,55.032,12.802,56.811,12.427,55.122ZZM17.878,50.675C19.384,51.216,18.072,48.915,17.878,50.675ZZM16.897,49.616C18.489,50.099,17.075,48.547,16.897,49.616ZZM14.825,52.369C16.678,52.827,14.621,50.830,14.825,52.369ZZM13.408,54.911C12.108,54.821,13.784,56.599,13.408,54.911ZZM15.480,66.241C14.288,66.143,15.821,67.624,15.480,66.241ZZM16.788,51.946C15.642,51.240,13.545,55.327,14.062,57.982C16.348,54.878,15.373,55.093,16.788,51.946ZZM17.115,51.840C20.683,51.855,15.797,49.648,17.115,51.840ZZM17.878,58.193C16.368,57.599,17.316,59.969,17.878,58.193ZZM19.077,55.546C15.483,59.617,19.163,57.682,19.077,55.546ZZM33.031,40.085C31.942,38.334,32.145,42.214,33.031,40.085ZZM26.490,29.284C25.784,27.775,24.842,31.327,26.490,29.284ZZM47.530,22.824C53.516,23.754,42.600,26.035,42.952,26.848C47.033,25.522,40.299,31.985,41.643,29.125C39.384,31.649,36.319,36.479,33.249,35.850C32.104,32.673,32.981,43.859,29.979,40.970C28.052,42.107,20.721,32.702,29.353,30.889C34.276,26.833,33.712,24.351,28.674,30.074C27.655,35.187,21.289,32.994,24.528,32.672C27.029,31.948,34.634,23.526,26.927,28.331C26.012,27.063,22.200,32.180,23.329,27.695C24.081,22.886,31.373,20.579,33.140,17.530C38.126,13.383,45.018,18.535,45.820,20.200C42.224,20.879,53.865,22.641,47.530,22.824ZZM24.855,27.484C23.312,25.057,23.595,28.784,24.855,27.484ZZM25.073,25.895C23.773,25.805,25.449,27.584,25.073,25.895ZZM27.144,24.730C25.445,24.315,27.114,25.787,27.144,24.730ZZM28.889,25.895C25.224,26.581,29.533,27.815,28.889,25.895ZZM30.960,25.895C29.211,25.452,31.502,28.171,30.960,25.895ZZM31.941,23.460C30.045,22.096,31.171,28.067,31.941,23.460ZZM27.798,33.731C29.253,34.323,28.438,32.003,27.798,33.731ZZM27.144,35.320C29.086,35.568,26.904,33.389,26.722,35.081ZM29.978,35.849C25.548,36.642,26.344,41.682,29.978,35.849ZZM38.155,27.166C40.783,26.952,37.571,25.688,38.155,27.166ZZM37.500,21.024C34.550,19.005,29.373,26.288,37.500,21.024ZZM35.756,28.648C35.463,31.281,39.008,25.932,35.756,28.648ZZM31.614,33.837C29.915,33.422,31.583,34.894,31.614,33.837ZZM32.377,32.990C29.989,33.151,32.576,34.333,32.377,32.990ZZM35.429,29.495C32.127,31.026,30.766,35.335,35.429,29.495ZZM34.448,33.731C32.839,33.378,34.261,34.524,34.448,33.731ZZM34.993,33.837C33.692,33.747,35.369,35.526,34.993,33.837ZZM35.974,32.143C38.774,28.443,33.188,36.556,35.974,32.143ZZM39.245,31.295C38.371,30.281,37.041,31.797,39.245,31.295ZZM40.335,28.542C36.057,29.075,37.965,32.478,40.335,28.542ZZM43.387,27.907C44.472,27.576,42.938,27.321,43.387,27.907ZZM41.643,27.483C39.846,27.607,42.057,28.725,41.643,27.483ZZM42.951,18.482C40.211,17.393,41.593,20.678,42.951,18.482ZZM29.761,42.838C30.602,47.517,33.835,41.997,29.761,42.838ZZM9.048,58.616C10.829,58.988,8.770,57.007,9.048,58.616ZZM0.000,64.017C0.623,66.089,1.560,63.289,0.000,64.017ZZM1.308,61.475C4.606,57.398,-1.890,59.630,0.981,61.052ZM3.052,57.981C11.964,56.250,-1.508,56.797,3.052,57.981ZZM4.906,58.087C4.987,56.839,2.968,58.501,4.906,58.087ZZM2.398,58.828C1.921,61.013,4.802,58.895,2.398,58.828ZZM0.763,65.393C2.544,65.765,0.484,63.784,0.763,65.393ZZM19.949,59.145C20.312,61.609,22.200,56.177,19.949,59.145ZZM0.981,63.381C1.486,66.169,2.589,60.856,0.981,63.381ZZM19.186,60.734C18.666,62.245,21.151,60.853,19.186,60.734ZZM21.039,58.086C21.822,59.321,21.785,56.094,21.039,58.086ZZM19.622,58.828C17.804,58.625,18.709,60.596,19.622,58.828ZZM3.052,64.334C0.108,64.498,3.588,68.709,3.052,64.334ZZ"></path></symbol><!----></defs><!----><use fill-rule="evenodd" href="#xeho91-avatar-frame" filter="url(#xeho91-avatar-shadow)" fill="url(#xeho91-avatar-gradient)"></use><use href="#xeho91-avatar-logomark" filter="url(#xeho91-avatar-shadow)" transform="translate(25.275, 5.0575)" fill="url(#xeho91-avatar-gradient)"></use><!----></svg>