<svg
	id="xeho91-avatar"
	xmlns="http://www.w3.org/2000/svg"
	viewBox="0 0 1000 1000"
>
	<title>xeho91's avatar</title>
	<desc>A self-made xeho91's avatar made with SVG</desc>
	<defs>
		<filter id="logomark-shadow">
			<feDropShadow
				dx="0"
				dy="0"
				stdDeviation="20"
				flood-color="#e18e4a"
				flood-opacity="0.75"
			/>
		</filter>
		<filter id="background-shadow">
			<feDropShadow
				dx="0"
				dy="0"
				stdDeviation="10"
				flood-color="#2c042e"
				flood-opacity="0.75"
			/>
		</filter>
	</defs>
	<g id="logo-background">
		<circle class="frame"
			cx="500"
			cy="500"
			r="500"
			fill="#e18e4a"
		/>
		<circle class="background"
			cx="500"
			cy="500"
			r="460"
			fill="#2c042e"
			filter="url(#background-shadow)"
		/>
	</g>
	<g id="logomark" fill="#e18e4a" filter="url(#logomark-shadow)">
		<path d="M675.34457 602.28434l-3.24712-12.98849c-16.23561-5.41187-24.8946-9.74136-24.8946-17.31798l-6.49424 3.24712c0-5.41187-6.49425-10.82374-17.31799-18.40036-18.40035 0-38.96546-21.64747-61.69531-64.94243-1.08237-2.16475-3.24712-3.24712-3.24712-5.41187-3.24712-4.32949-6.49424-9.74136-8.65899-15.15323v-1.08238l-6.49424-19.48273s-1.08238 0-1.08238-1.08237l-4.32949-4.3295s0-2.16475-1.08238-2.16475h-4.32949v1.08238c0-2.16475-1.08238-3.24712-3.24712-4.3295-4.3295-5.41187-8.659-11.90611-9.74137-18.40035-3.24712-3.24713-5.41187-7.57662-7.57662-10.82374-2.16474-5.41187-5.41187-11.90612-6.49424-18.40036 0-1.08237 0-2.16475-1.08237-2.16475-1.08238-2.16474-2.16475-3.24712-2.16475-4.32949h-1.08238v-3.24712c0-2.16475-1.08237-3.24713-3.24712-5.41187-5.41187-4.3295-9.74136-10.82374-12.98848-16.23561-1.08238-1.08238-2.16475-2.16475-3.24713-2.16475h-1.08237s-2.16475-1.08237-2.16475-2.16475c-1.08237-1.08237-1.08237-2.16475 0-3.24712-1.08237-1.08237 0-2.16475 0-3.24712v-1.08237c0-3.24713-2.16475-5.41187-4.32949-7.57662l-2.16475-2.16475c-1.08238 0-2.16475-1.08237-2.16475-2.16475-1.08237-1.08237-1.08237-1.08237-1.08237-2.16475-15.15324-21.64747-32.47122-37.88308-50.87158-45.4597l-7.57661 3.24712-2.16475-10.82374c-38.96546-10.82374-58.44819-19.48273-58.44819-24.8946-4.3295 0-6.49425 2.16475-6.49425 5.41187-4.32949 0-6.49424-2.16474-7.57661-5.41187l-12.98849 16.23561c3.24712 25.97698 14.07086 55.20107 34.63597 87.67229v3.24712l-4.3295 6.49424c7.57662 0 9.74136 2.16475 9.74136 5.41187l-4.32949 6.49425c5.41187 0 11.90611 11.90611 19.48273 35.71833 3.24712 3.24713 5.41187 7.57662 7.57662 9.74137 1.08237 3.24712 3.24712 6.49424 4.32949 9.74137 2.16475 0 2.16475 2.16474 2.16475 3.24712v1.08237c1.08237 5.41187 5.41187 11.90611 8.65899 17.31798 1.08238 0 2.16475-5.41187 3.24712 3.24712h1.08238s2.16474 8.659 6.49424 17.31799v-1.08238h1.08237c2.16475 14.07086 14.07086 24.8946 22.72986 36.80072 9.74136 10.82373 18.40035 22.72985 29.22409 32.47121 0 0 1.08238 0 1.08238 1.08238v-2.16475c1.08237 0 1.08237-1.08237 1.08237-1.08237h3.24712l6.49424 4.32949 1.08238 1.08237c2.16475 1.08238 4.32949 3.24713 5.41187 3.24713h9.74136s0 5.41187 9.74137 5.41187v4.32949l-5.41187 6.49424c2.16475 0 3.24712 1.08238 3.24712 3.24713 2.16475 0 2.16475-3.24713 2.16475-3.24713 9.74136 0 18.40035 4.3295 30.30647 14.07087h3.24712l6.49424-1.08238c0 5.41187 2.16475 10.82374 7.57662 17.31798 5.41187 0 9.74136-3.24712 12.98849-4.32949 5.41187 0 7.57661 7.57662 7.57661 7.57662h9.74137l-3.24712-3.24713c20.5651 2.16475 42.21258 8.659 64.94243 19.48273l6.49424-2.16474c0 2.16474 1.08238 4.32949 3.24713 4.32949h25.97697v-8.65899l-5.41187-11.90611zm-143.95573-20.56511h-3.24712v-6.49424h3.24712z"/>
		<path d="M386.89193 444.25775v8.65899c0 6.49424-4.3295 10.82374-7.57662 10.82374-3.24712 14.07086-12.98849 20.5651-12.98849 20.5651v17.31799h3.24713c16.2356-28.14173 30.30646-41.13021 33.55359-41.13021 0 0-8.659-5.41187-9.74137-9.74137-1.08237-3.24712-10.82374-21.64748-11.90611-23.81222l-2.16475-3.24713-4.3295 12.98849c2.16475 3.24712 3.24713 9.74137 3.24713 10.82374zm-12.98849-1.08238h-7.57662v6.49425c4.3295 0 7.57662-3.24712 7.57662-6.49425zm-34.63596 66.02481h3.24712c7.57661-28.14172 12.98848-34.63596 23.81222-34.63596v-2.16475s-4.32949-2.16475-9.74136-5.41187c-9.74137 4.3295-9.74137 9.74137-9.74137 11.90611v5.41187l-1.08237 8.65899-2.16475-1.08237-2.16475 6.49424-4.32949-1.08237v3.24712c-1.08238 4.3295-2.16475 9.74137 2.16475 8.65899zm0 31.38885h3.24712v-6.49425h-3.24712zm-23.81223 6.49424c0-6.49424-2.16475-9.74137-7.57662-9.74137h-3.24712v3.24713l3.24712 6.49424c-2.16475 0-3.24712 1.08237-3.24712 3.24712v9.74137s7.57662-5.41187 10.82374-12.98849zm-10.82374 40.04783h6.49424v-3.24712h-6.49424zm61.69531-40.04783h-6.49424v5.41187h6.49424zm-6.49424-44.37733h-3.24712v5.41187h3.24712zm-31.38884 3.24712h-7.57662v9.74137h7.57662zm-37.88309 77.93092h4.3295v-3.24712c0-3.24712-2.16475-5.41187-6.49425-6.49424h-4.32949v3.24712c0 4.32949 2.16474 6.49424 6.49424 6.49424zm187.25069-238.12226v2.16475c-1.08238 1.08238-1.08238 2.16475 0 3.24712-1.08238 1.08238 0 2.16475 0 3.24712 0 1.08238 2.16474 2.16475 2.16474 2.16475v-6.49424s5.41187-1.08237 9.74137-3.24712c0-4.3295-16.23561-8.65899-16.23561-7.57662 2.16475 1.08237 3.24712 3.24712 4.3295 6.49424zm73.60142-110.40213h-7.57662v3.24712h7.57662zm149.3676 69.27193h6.49424c5.41187 0 7.57662-2.16475 7.57662-5.41187h-12.98849v5.41187zM284.06641 581.71923h-3.24712v5.41187h3.24712zm291.15858-136.37911h-3.24713v5.41187h3.24713zm12.98848-18.40035v3.24712c5.41187 0 7.57662-2.16475 7.57662-5.41187v-3.24712c-4.3295-1.08238-6.49424 2.16474-7.57662 5.41187zM428.02214 656.40303l-4.3295 3.24712h4.3295zm-4.3295 2.16475h-2.16475v1.08237zM632.5908 370.65632c0 3.24713-2.16475 7.57662-6.49424 11.90612v3.24712h6.49424c0-6.49425 2.16475-9.74137 7.57662-9.74137 0-3.24712-2.16475-5.41187-7.57662-5.41187zm-60.61294 94.16653v3.24712c9.74137-2.16474 9.74137-10.82373 20.56511-28.14172v-5.41187h-1.08238c-8.65899 9.74137-19.48273 18.40036-19.48273 30.30647zm-89.83703 90.91941c0 9.74137-3.24712 12.98849-12.98849 12.98849v9.74136c-9.74136 21.64748-18.40035 34.63597-20.5651 34.63597h-9.74137l5.41187 2.16474c0 12.98849-7.57661 25.97698-20.5651 35.71834h-6.49424v-11.90611s0 3.24712-9.74137 9.74137v3.24712l8.65899-3.24712c4.3295 4.32949 6.49425 8.65899 7.57662 11.90611h-1.08237l3.24712 18.40035c-4.3295 0-9.74137 9.74137-12.98849 28.14173h6.49424v4.32949c0 5.41187-2.16474 9.74137-7.57661 17.31798 2.16474 3.24713 3.24712 6.49425 3.24712 6.49425h-9.74137l-10.82374 7.57662 4.3295 5.41186c0 3.24713-1.08237 5.41187-5.41187 5.41187l5.41187 6.49425v19.48273h3.24712l-4.32949 4.32949 3.24712 14.07086h-3.24712l-6.49425-2.16474c0 4.32949-3.24712 9.74136-12.98848 9.74136v3.24712c-16.23561 0-30.30647-7.57661-41.13021-20.5651v-1.08238h2.16475c-1.08238 0-1.08238-3.24712-2.16475-3.24712v3.24712s-9.74137-5.41186-20.56511-16.2356v3.24712l3.24713 3.24712h-7.57662c-3.24712 0-7.57662-3.24712-11.90611-10.82374 2.16474 0 4.32949 0 4.32949-2.16475-3.24712 0-9.74136-3.24712-9.74136-9.74136v-1.08238c0-2.16474-1.08238-3.24712 2.16474-3.24712-5.41187-17.31798-9.74136-24.8946-11.90611-24.8946 4.3295-30.30647 9.74137-46.54208 12.98849-50.87157l-3.24712-15.15324c4.32949 0 7.57661-2.16474 9.74136-5.41186-2.16475-4.3295-4.32949-7.57662-4.32949-9.74137 2.16474-6.49424 4.32949-9.74137 6.49424-9.74137l-2.16475-6.49424v-3.24712c9.74137 0 29.2241-22.72985 47.62445-69.27193h4.3295c5.41187 0 7.57662 9.74137 7.57662 9.74137h3.24712s4.32949-9.74137 12.98848-18.40036h-6.49424c0-9.74137 4.3295-8.65899 8.65899-8.65899 0 2.16475-5.41187 2.16475 5.41187 2.16475v-3.24713c-9.74136-3.24712-4.32949-7.57661-4.32949-9.74136l-6.49425 3.24712v-3.24712c0-3.24712 2.16475-6.49424 9.74137-9.74137 0 6.49425 2.16475 9.74137 9.74136 9.74137 0 7.57662-8.65899 15.15323-8.65899 24.8946v3.24712l5.41187 9.74137c-15.15323 0-30.30647 17.31798-43.29496 49.78919l7.57662 3.24713c0-3.24713 4.3295-11.90612 12.98849-22.72986 0-12.98848 3.24712-20.5651 9.74136-20.5651h7.57662v3.24712c1.08238-5.41187 3.24712-9.74136 9.74137-15.15323v-9.74137c9.74136 0 9.74136-6.49424 12.98848-23.81222 9.74137 0 12.98849-10.82374 12.98849-20.56511h-6.49424s-2.16475 9.74137-7.57662 9.74137h-3.24712c-5.41187 0-7.57662-3.24712-7.57662-8.65899l-12.98849 4.32949v-6.49424c0-1.08238 8.65899-10.82374 23.81223-30.30647v1.08237c2.16475 14.07086 14.07086 24.8946 22.72985 36.80072 9.74137 10.82373 18.40036 22.72985 29.2241 32.47121h1.08237v-1.08237l1.08237-1.08237c0 9.74136-7.57661 18.40035-20.5651 37.88308h7.57662c10.82374 0 16.23561-9.74136 16.23561-18.40035h2.16474v-6.49425l5.41187-6.49424-6.49424-4.3295 6.49424 3.24712h1.08238c2.16475 3.24713 4.32949 3.24713 6.49424 4.3295zm-129.88487 25.97697h4.3295c5.41187 0 7.57662-2.16474 7.57662-6.49424h-9.74137zm-16.23561 30.30647h7.57662s3.24712-9.74136 3.24712-15.15323v-3.24712c0-4.3295 0-6.49425-5.41187-6.49425 0 7.57662-5.41187 14.07086-5.41187 18.40036zm-20.5651 42.21259c9.74137-2.16475 12.98849-8.659 12.98849-18.40036-4.3295 0-3.24712 3.24712-12.98849 11.90611zm-3.24712 8.65899h7.57662v-3.24713h-7.57662zm-9.74137 12.98848h3.24712v-6.49424h-3.24712zm5.41187 87.67229h-3.24712v6.49424h3.24712zm0-16.23561h-3.24712v6.49424h3.24712zm0-21.64748l-5.41187-3.24712h-4.32949v5.41187c5.41187 0 7.57661 2.16475 7.57661 6.49424h3.24713v-8.65899zm10.82374-47.62445V666.1444h-7.57662l-3.24712 11.90611 7.57662-3.24712c0 3.24712 1.08237 3.24712 3.24712 3.24712zm3.24712 47.62445h-3.24712v6.49425h3.24712zm0-41.13021h4.3295v-5.41187h-3.24712zm10.82374 72.51906h3.24712v-9.74137h-3.24712zm0-11.90612v-3.24712c-2.16475-3.24712-3.24712-7.57662-3.24712-9.74136h-4.32949v3.24712c2.16474 3.24712 3.24712 7.57662 3.24712 9.74136zm0-34.63596h-3.24712v6.49424h3.24712zm-7.57661 15.15323h7.57661v-5.41187c-5.41187 0-7.57661 2.16475-7.57661 5.41187zm10.82373 60.61294l-3.24712-5.41187h-7.57661zm3.24713-114.73163h-3.24713l-3.24712 11.90611h6.49425zm17.31798-48.70683l-12.98849-3.24712c-10.82374 32.47122-17.31798 51.95395-17.31798 57.36582 3.24712 0 9.74136-9.74137 17.31798-31.38885-2.16475 0-3.24712-1.08237-3.24712-3.24712 2.16475-1.08237 6.49424-7.57661 16.23561-19.48273zm20.5651-29.22409h-3.24712v6.49424h3.24712zm54.1187-46.54208h6.49424v-6.49424c-4.32949 0-6.49424 2.16474-6.49424 6.49424zm-9.74137-9.74137h7.57662v-3.24712h-6.49424zm-20.5651 28.14173h7.57662v-5.41187h-7.57662zm-14.07086 24.8946h-3.24712v6.49424h3.24712zm20.5651 116.89638h-3.24712v5.41187h3.24712zm12.98849-146.12048l-6.49425-4.3295h-6.49424v9.74137h9.74137c0 3.24712-6.49425 6.49424-17.31799 9.74136l3.24713 6.49425c-1.08238 14.07086-6.49425 21.64748-16.23561 21.64748v6.49424s6.49424 3.24712 6.49424 11.90611h4.3295c0-9.74136 2.16474-14.07086 7.57661-30.30647l6.49425 2.16475c0-2.16475 0-3.24712 3.24712-3.24712l-6.49424-5.41187v-5.41187c9.74136 1.08237 11.90611-7.57662 11.90611-19.48273zm3.24712-1.08237h4.3295c5.41187 0 7.57661-2.16475 7.57661-6.49425l-12.98848-3.24712c0 4.3295 1.08237 6.49424 1.08237 9.74137zm7.57662 64.94243h-7.57662v5.41187c5.41187 1.08237 7.57662-1.08237 7.57662-5.41187zm11.90611-27.05935c-7.57662 0-11.90611 4.3295-15.15323 23.81223h3.24712c4.32949 0 6.49424-3.24712 6.49424-9.74137h1.08237v-5.41187c9.74137-4.32949 4.3295-5.41187 4.3295-8.65899zm138.54386-159.10896v-3.24712h-7.57662v9.74136c5.41187 0 7.57662-1.08237 7.57662-6.49424zM516.7768 329.52612v-3.24713h-3.24713c-4.32949 0-6.49424 2.16475-6.49424 5.41187v3.24712h3.24712c4.3295 0 6.49425-1.08237 6.49425-5.41186zm208.89816-66.02481v3.24712h19.48273c0 9.74136-7.57662 8.65899-23.81223 10.82374l4.3295 8.65899v3.24712c-20.56511 1.08237-29.2241 4.3295-29.2241 9.74137l-8.65899-3.24713c-8.65899 3.24713-14.07086 5.41187-14.07086 8.659h6.49424l14.07087-5.41187v3.24712l-4.3295 2.16475h4.3295v9.74136l-9.74137 3.24712c-7.57662 9.74137-12.98849 17.31798-12.98849 22.72985l-7.57661-3.24712c1.08237-8.65899 9.74136-11.90611 9.74136-11.90611v-1.08237h-3.24712s-4.3295 6.49424-12.98849 10.82373l3.24712 4.3295c0 3.24712-4.32949 11.90611-12.98848 11.90611h-4.3295v7.57662c-20.5651 20.5651-34.63596 30.30647-34.63596 38.96546h-6.49425v-10.82374l-18.40035 9.74137h-2.16475v-9.74137h-4.3295c-5.41187 0-6.49424 4.3295-6.49424 8.65899v3.24712s9.74137 3.24713 12.98849 6.49425l-3.24712 5.41187c0 2.16475 1.08237 3.24712 3.24712 3.24712-9.74137 17.31798-12.98849 29.22409-12.98849 29.22409h-6.49424c-5.41187 9.74137-9.74137 17.31799-12.98849 18.40036v-24.8946s-5.41187 3.24712-11.90611 11.90611l-3.24712-3.24712s0-2.16475-1.08238-2.16475h-5.41187v1.08238c0-2.16475-1.08237-3.24712-3.24712-4.3295-4.3295-5.41187-8.65899-11.90611-9.74136-18.40035-3.24713-3.24713-5.41187-7.57662-7.57662-10.82374-2.16475-5.41187-5.41187-11.90612-6.49425-18.40036 0-1.08237-1.08237-2.16475-1.08237-3.24712v-1.08237c-1.08237-2.16475-1.08237-3.24713-1.08237-5.41187 46.54207-37.88309 74.6838-58.44819 85.50754-86.58992h-3.24713c-48.70682 46.54208-72.51905 66.02481-72.51905 71.43668 0 6.49425-1.08237 10.82374-10.82374 10.82374h-1.08237v-1.08237c0-1.08238-1.08237-2.16475-1.08237-3.24712-5.41187-4.3295-9.74137-9.74137-11.90612-16.23561-1.08237-1.08238-2.16475-2.16475-3.24712-2.16475 3.24712 1.08237 8.65899 3.24712 15.15324 8.65899l7.57661 3.24712c7.57662-6.49424 11.90612-14.07086 14.07086-22.72985 19.48273-18.40036 32.47122-30.30647 43.29496-34.63597v-3.24712l-17.31798-3.24712c0 3.24712-3.24712 9.74137-23.81223 16.23561l3.24712-7.57662h-5.41187c-10.82374 9.74137-18.40035 18.40036-20.5651 18.40036h-7.57662c-1.08237 3.24712-3.24712 4.32949-7.57662 4.32949l-1.08237-3.24712h7.57662v-18.40035h-4.3295c-4.32949 0-6.49424-3.24713-6.49424-7.57662 8.65899-15.15324 17.31798-22.72985 28.14172-22.72985l-3.24712-7.57662c14.07086-18.40036 30.30647-28.14172 45.4597-28.14172 0-6.49424 2.16475-11.90611 22.72985-16.23561v-3.24712h-9.74136v-6.49424c9.74136 0 15.15323-3.24713 20.5651-11.90612 6.49425 0 20.56511-9.74136 44.37733-18.40035h3.24712l3.24713 5.41187 6.49424-3.24713c14.07086 0 35.71834 6.49425 46.54208 18.40036v3.24712l-5.41187 7.57662c10.82374 0 23.81222 2.16475 33.55359 6.49424v6.49425l-15.15324 3.24712c19.48273 12.98848 35.71834 18.40035 46.54208 18.40035v3.24713zm-225.13377 47.62445c0-4.3295-3.24712-7.57662-7.57662-7.57662h-3.24712v7.57662h3.24712v2.16475h7.57662zm2.16474-16.23561h-3.24712v6.49424h3.24712zm20.56511-12.98849h-7.57662v3.24713h7.57662zm17.31798 12.98849h-3.24712c-3.24712 0-7.57662 3.24712-9.74137 9.74137h7.57662c4.3295 0 6.49425-2.16475 6.49425-5.41187v-4.3295zm20.56511 0h-6.49425c2.16475 3.24712 3.24712 7.57662 3.24712 9.74137h3.24713zm9.74136-24.8946c2.16475 0 3.24712-3.24712 3.24712-3.24712h-6.49424s-4.3295 7.57662-12.98849 12.98849c4.3295 0 6.49425 3.24712 6.49425 10.82373 3.24712 0 8.65899-5.41186 12.98848-16.2356-2.16475-1.08238-3.24712-2.16475-3.24712-4.3295zm-41.13021 103.9079h7.57662v-5.41187c-4.3295 0-7.57662 1.08237-7.57662 5.41187zm-6.49424 16.2356v-4.32949l6.49424 3.24712h3.24712v-3.24712c0-3.24712-2.16474-5.41187-7.57661-5.41187-4.3295 2.16475-7.57662 3.24712-9.74137 3.24712 2.16475 3.24712 4.3295 6.49424 7.57662 6.49424zm28.14172 6.49425h-10.82374c-10.82374 9.74136-19.48273 20.5651-19.48273 23.81222v4.3295h6.49424c7.57662-18.40036 14.07087-23.81223 24.8946-23.81223zm81.17804-88.75466c4.3295-2.16475 8.65899-3.24712 9.74137-3.24712v-3.24713h-9.74137zm-6.49424-62.77769c-2.16475-3.24712-4.3295-7.57662-4.3295-9.74136-20.5651 7.57661-30.30647 11.90611-30.30647 15.15323 0 4.3295 0 6.49424-9.74136 6.49424v9.74137c10.82374-7.57662 25.97697-14.07086 44.37733-21.64748zm-17.31798 77.93092v6.49425c5.41187-4.3295 9.74136-6.49425 12.98848-6.49425v-6.49424c-4.32949 4.32949-9.74136 6.49424-12.98848 6.49424zm-41.13021 53.03632h-7.57662v3.24712h7.57662zm7.57662-8.65899h-3.24713c-4.32949 0-6.49424 3.24712-6.49424 5.41187h9.74137zm30.30647-35.71834h-6.49425s-6.49424 12.98849-27.05935 29.2241v3.24712c9.74137 0 16.23561-14.07086 33.5536-32.47122zm-9.74137 42.21259h-7.57662v3.24712h7.57662zm5.41187 2.16474h-3.24712v6.49425h3.24712zm9.74136-18.40035c5.41187-3.24713 10.82374-5.41187 14.07087-5.41187l-3.24713-6.49425c-15.15323 6.49425-23.81222 15.15324-23.81222 28.14173l6.49424-3.24713h7.57662zm32.47122-7.57662l-7.57662-4.3295-4.32949 4.3295zm10.82374-28.14172c-16.23561 0-24.8946 9.74136-28.14172 18.40035h12.98849c1.08237-8.65899 4.32949-10.82373 15.15323-18.40035zm30.30647-6.49425l3.24712-3.24712h-3.24712zm-17.31798-4.32949c-5.41187 0-7.57662 3.24712-7.57662 5.41187h7.57662zm12.98848-92.00178c-2.16474 0-6.49424-1.08238-9.74136-3.24712l-7.57662 9.74136h9.74137c5.41187 0 7.57661-2.16475 7.57661-6.49424zM549.24801 468.06997c2.16475 5.41187 4.3295 10.82374 8.65899 16.23561 1.08238 2.16475 2.16475 4.3295 3.24713 5.41187 5.41186-9.74136 7.57661-16.23561 7.57661-18.40035-2.16475 0-6.49424-1.08238-9.74136-3.24713zM343.59697 628.26131h6.49424v-5.41187h-6.49424zm-89.83703 56.28344c0 4.3295 2.16475 6.49425 7.57662 6.49425v-6.49425zm12.98848-25.97697h7.57662s-1.08237-3.24712 1.08238-7.57662c0-8.65899-1.08238-9.74136-10.82374-9.74136 7.57661-3.24712 9.74136-6.49424 9.74136-9.74137v-5.41187c-9.74136 2.16475-9.74136 3.24713-9.74136 3.24713v6.49424l-1.08238 4.32949h-9.74136v19.48273c2.16475 0 6.49424-3.24712 9.74136-5.41186 2.16475 0 3.24712 4.32949 3.24712 4.32949zm17.31799-36.80071c7.57661 0 9.74136-5.41187 20.5651-5.41187v-5.41187s-12.98849 0-28.14172 3.24712l4.3295 7.57662zm18.40035 1.08237v-3.24712h-7.57661v3.24712zm-24.8946 8.65899v9.74137h9.74137c-2.16475-5.41187-3.24712-8.65899-3.24712-9.74137zm-16.2356 66.02481h6.49424v-5.41187h-6.49424zm190.4978-62.77769v6.49425h3.24712c5.41187 0 7.57662-2.16475 7.57662-6.49425v-9.74136c-7.57662 3.24712-10.82374 6.49424-10.82374 9.74136zM263.5013 678.05051v5.41187h7.57662v-11.90611c-4.3295 0-6.49424 3.24712-7.57662 6.49424zm180.75644-28.14172v6.49424h7.57662c0-3.24712-2.16475-6.49424-7.57662-6.49424zm18.40036-27.05935v3.24712c4.3295 0 6.49424-2.16474 6.49424-6.49424v-3.24712c-4.32949 0-6.49424 1.08237-6.49424 6.49424zm-14.07086 8.65899h-3.24712c-4.3295 0-6.49425 2.16475-7.57662 6.49425h3.24712c4.3295 0 7.57662-2.16475 7.57662-6.49425zM284.06641 686.7095h-7.57662l-3.24712 14.07086v4.3295h9.74136V686.7095z"/>
	</g>
</svg>
