<svg
	id="xeho91-avatar"
	xmlns="http://www.w3.org/2000/svg"
	viewBox="0 0 1000 1000"
>
	<title>xeho91's avatar</title>
	<desc>A self-made xeho91's avatar made with SVG</desc>
	<defs>
		<filter id="logomark-shadow">
			<feDropShadow
				dx="0"
				dy="0"
				stdDeviation="20"
				flood-color="#e18e4a"
				flood-opacity="0.75"
			/>
		</filter>
		<filter id="background-shadow">
			<feDropShadow
				dx="0"
				dy="0"
				stdDeviation="10"
				flood-color="#2c042e"
				flood-opacity="0.75"
			/>
		</filter>
	</defs>
	<g id="logo-background">
		<circle class="frame"
			cx="500"
			cy="500"
			r="500"
			fill="#e18e4a"
		/>
		<circle class="background"
			cx="500"
			cy="500"
			r="460"
			fill="#2c042e"
			filter="url(#background-shadow)"
		/>
	</g>
	<g id="logomark" fill="#e18e4a" filter="url(#logomark-shadow)">
		<path
			id="x-forward"
			class="slash"
			d="
				M 675.34457 602.28434
				l -3.24712 -12.98849
				c -16.23561 -5.41187 -24.8946 -9.74136 -24.8946 -17.31798
				l -6.49424 3.24712
				c 0 -5.41187 -6.49425 -10.82374 -17.31799 -18.40036 -18.40035 0 -38.96546 -21.64747 -61.69531 -64.94243 -1.08237 -2.16475 -3.24712 -3.24712 -3.24712 -5.41187 -3.24712 -4.32949 -6.49424 -9.74136 -8.65899 -15.15323
				v -1.08238
				l -6.49424 -19.48273s -1.08238 0 -1.08238 -1.08237
				l -4.32949 -4.3295s0 -2.16475 -1.08238 -2.16475
				h -4.32949
				v 1.08238
				c 0 -2.16475 -1.08238 -3.24712 -3.24712 -4.3295 -4.3295 -5.41187 -8.659 -11.90611 -9.74137 -18.40035 -3.24712 -3.24713 -5.41187 -7.57662 -7.57662 -10.82374 -2.16474 -5.41187 -5.41187 -11.90612 -6.49424 -18.40036 0 -1.08237 0 -2.16475 -1.08237 -2.16475 -1.08238 -2.16474 -2.16475 -3.24712 -2.16475 -4.32949
				h -1.08238
				v -3.24712
				c 0 -2.16475 -1.08237 -3.24713 -3.24712 -5.41187 -5.41187 -4.3295 -9.74136 -10.82374 -12.98848 -16.23561 -1.08238 -1.08238 -2.16475 -2.16475 -3.24713 -2.16475
				h -1.08237s -2.16475 -1.08237 -2.16475 -2.16475
				c -1.08237 -1.08237 -1.08237 -2.16475 0 -3.24712 -1.08237 -1.08237 0 -2.16475 0 -3.24712
				v -1.08237
				c 0 -3.24713 -2.16475 -5.41187 -4.32949 -7.57662
				l -2.16475 -2.16475
				c -1.08238 0 -2.16475 -1.08237 -2.16475 -2.16475 -1.08237 -1.08237 -1.08237 -1.08237 -1.08237 -2.16475 -15.15324 -21.64747 -32.47122 -37.88308 -50.87158 -45.4597
				l -7.57661 3.24712 -2.16475 -10.82374
				c -38.96546 -10.82374 -58.44819 -19.48273 -58.44819 -24.8946 -4.3295 0 -6.49425 2.16475 -6.49425 5.41187 -4.32949 0 -6.49424 -2.16474 -7.57661 -5.41187
				l -12.98849 16.23561
				c 3.24712 25.97698 14.07086 55.20107 34.63597 87.67229
				v 3.24712
				l -4.3295 6.49424
				c 7.57662 0 9.74136 2.16475 9.74136 5.41187
				l -4.32949 6.49425
				c 5.41187 0 11.90611 11.90611 19.48273 35.71833 3.24712 3.24713 5.41187 7.57662 7.57662 9.74137 1.08237 3.24712 3.24712 6.49424 4.32949 9.74137 2.16475 0 2.16475 2.16474 2.16475 3.24712
				v 1.08237
				c 1.08237 5.41187 5.41187 11.90611 8.65899 17.31798 1.08238 0 2.16475 -5.41187 3.24712 3.24712
				h 1.08238s2.16474 8.659 6.49424 17.31799
				v -1.08238
				h 1.08237
				c 2.16475 14.07086 14.07086 24.8946 22.72986 36.80072 9.74136 10.82373 18.40035 22.72985 29.22409 32.47121 0 0 1.08238 0 1.08238 1.08238
				v -2.16475
				c 1.08237 0 1.08237 -1.08237 1.08237 -1.08237
				h 3.24712
				l 6.49424 4.32949 1.08238 1.08237
				c 2.16475 1.08238 4.32949 3.24713 5.41187 3.24713
				h 9.74136s0 5.41187 9.74137 5.41187
				v 4.32949
				l -5.41187 6.49424
				c 2.16475 0 3.24712 1.08238 3.24712 3.24713 2.16475 0 2.16475 -3.24713 2.16475 -3.24713 9.74136 0 18.40035 4.3295 30.30647 14.07087
				h 3.24712
				l 6.49424 -1.08238
				c 0 5.41187 2.16475 10.82374 7.57662 17.31798 5.41187 0 9.74136 -3.24712 12.98849 -4.32949 5.41187 0 7.57661 7.57662 7.57661 7.57662
				h 9.74137
				l -3.24712 -3.24713
				c 20.5651 2.16475 42.21258 8.659 64.94243 19.48273
				l 6.49424 -2.16474
				c 0 2.16474 1.08238 4.32949 3.24713 4.32949
				h 25.97697
				v -8.65899
				l -5.41187 -11.90611
				z
				m -143.95573 -20.56511
				h -3.24712
				v -6.49424
				h 3.24712
				z
			"
		/>
		<path
			id="x-back"
			class="slash"
			d="
				M 386.89193 444.25775
				v 8.65899
				c 0 6.49424 -4.3295 10.82374 -7.57662 10.82374 -3.24712 14.07086 -12.98849 20.5651 -12.98849 20.5651
				v 17.31799
				h 3.24713
				c 16.2356 -28.14173 30.30646 -41.13021 33.55359 -41.13021 0 0 -8.659 -5.41187 -9.74137 -9.74137 -1.08237 -3.24712 -10.82374 -21.64748 -11.90611 -23.81222
				l -2.16475 -3.24713 -4.3295 12.98849
				c 2.16475 3.24712 3.24713 9.74137 3.24713 10.82374
				z
				m -12.98849 -1.08238
				h -7.57662
				v 6.49425
				c 4.3295 0 7.57662 -3.24712 7.57662 -6.49425
				z
				m -34.63596 66.02481
				h 3.24712
				c 7.57661 -28.14172 12.98848 -34.63596 23.81222 -34.63596
				v -2.16475
				s -4.32949 -2.16475 -9.74136 -5.41187
				c -9.74137 4.3295 -9.74137 9.74137 -9.74137 11.90611
				v 5.41187
				l -1.08237 8.65899 -2.16475 -1.08237 -2.16475 6.49424 -4.32949 -1.08237
				v 3.24712
				c -1.08238 4.3295 -2.16475 9.74137 2.16475 8.65899
				z
				m 0 31.38885
				h 3.24712
				v -6.49425
				h -3.24712
				z
				m -23.81223 6.49424
				c 0 -6.49424 -2.16475 -9.74137 -7.57662 -9.74137
				h -3.24712
				v 3.24713
				l 3.24712 6.49424
				c -2.16475 0 -3.24712 1.08237 -3.24712 3.24712
				v 9.74137
				s 7.57662 -5.41187 10.82374 -12.98849
				z
				m -10.82374 40.04783
				h 6.49424
				v -3.24712
				h -6.49424
				z
				m 61.69531 -40.04783
				h -6.49424
				v 5.41187
				h 6.49424
				z
				m -6.49424 -44.37733
				h -3.24712
				v 5.41187
				h 3.24712
				z
				m -31.38884 3.24712
				h -7.57662
				v 9.74137
				h 7.57662
				z
				m -37.88309 77.93092
				h 4.3295
				v -3.24712
				c 0 -3.24712 -2.16475 -5.41187 -6.49425 -6.49424
				h -4.32949
				v 3.24712
				c 0 4.32949 2.16474 6.49424 6.49424 6.49424
				z
				m 187.25069 -238.12226
				v 2.16475
				c -1.08238 1.08238 -1.08238 2.16475 0 3.24712 -1.08238 1.08238 0 2.16475 0 3.24712 0 1.08238 2.16474 2.16475 2.16474 2.16475
				v -6.49424
				s 5.41187 -1.08237 9.74137 -3.24712
				c 0 -4.3295 -16.23561 -8.65899 -16.23561 -7.57662 2.16475 1.08237 3.24712 3.24712 4.3295 6.49424
				z
				m 73.60142 -110.40213
				h -7.57662
				v 3.24712
				h 7.57662
				z
				m 149.3676 69.27193
				h 6.49424
				c 5.41187 0 7.57662 -2.16475 7.57662 -5.41187
				h -12.98849
				v 5.41187
				z
				M 284.06641 581.71923
				h -3.24712
				v 5.41187
				h 3.24712
				z
				m 291.15858 -136.37911
				h -3.24713
				v 5.41187
				h 3.24713
				z
				m 12.98848 -18.40035
				v 3.24712
				c 5.41187 0 7.57662 -2.16475 7.57662 -5.41187
				v -3.24712
				c -4.3295 -1.08238 -6.49424 2.16474 -7.57662 5.41187
				z
				M 428.02214 656.40303
				l -4.3295 3.24712
				h 4.3295
				z
				m -4.3295 2.16475
				h -2.16475
				v 1.08237
				z
				M 632.5908 370.65632
				c 0 3.24713 -2.16475 7.57662 -6.49424 11.90612
				v 3.24712
				h 6.49424
				c 0 -6.49425 2.16475 -9.74137 7.57662 -9.74137 0 -3.24712 -2.16475 -5.41187 -7.57662 -5.41187
				z
				m -60.61294 94.16653
				v 3.24712
				c 9.74137 -2.16474 9.74137 -10.82373 20.56511 -28.14172
				v -5.41187
				h -1.08238
				c -8.65899 9.74137 -19.48273 18.40036 -19.48273 30.30647
				z
				m -89.83703 90.91941
				c 0 9.74137 -3.24712 12.98849 -12.98849 12.98849
				v 9.74136
				c -9.74136 21.64748 -18.40035 34.63597 -20.5651 34.63597
				h -9.74137
				l 5.41187 2.16474
				c 0 12.98849 -7.57661 25.97698 -20.5651 35.71834
				h -6.49424
				v -11.90611
				s 0 3.24712 -9.74137 9.74137
				v 3.24712
				l 8.65899 -3.24712
				c 4.3295 4.32949 6.49425 8.65899 7.57662 11.90611
				h -1.08237
				l 3.24712 18.40035
				c -4.3295 0 -9.74137 9.74137 -12.98849 28.14173
				h 6.49424
				v 4.32949
				c 0 5.41187 -2.16474 9.74137 -7.57661 17.31798 2.16474 3.24713 3.24712 6.49425 3.24712 6.49425
				h -9.74137
				l -10.82374 7.57662 4.3295 5.41186
				c 0 3.24713 -1.08237 5.41187 -5.41187 5.41187
				l 5.41187 6.49425
				v 19.48273
				h 3.24712
				l -4.32949 4.32949 3.24712 14.07086
				h -3.24712
				l -6.49425 -2.16474
				c 0 4.32949 -3.24712 9.74136 -12.98848 9.74136
				v 3.24712
				c -16.23561 0 -30.30647 -7.57661 -41.13021 -20.5651
				v -1.08238
				h 2.16475
				c -1.08238 0 -1.08238 -3.24712 -2.16475 -3.24712
				v 3.24712
				s -9.74137 -5.41186 -20.56511 -16.2356
				v 3.24712
				l 3.24713 3.24712
				h -7.57662
				c -3.24712 0 -7.57662 -3.24712 -11.90611 -10.82374 2.16474 0 4.32949 0 4.32949 -2.16475 -3.24712 0 -9.74136 -3.24712 -9.74136 -9.74136
				v -1.08238
				c 0 -2.16474 -1.08238 -3.24712 2.16474 -3.24712 -5.41187 -17.31798 -9.74136 -24.8946 -11.90611 -24.8946 4.3295 -30.30647 9.74137 -46.54208 12.98849 -50.87157
				l -3.24712 -15.15324
				c 4.32949 0 7.57661 -2.16474 9.74136 -5.41186 -2.16475 -4.3295 -4.32949 -7.57662 -4.32949 -9.74137 2.16474 -6.49424 4.32949 -9.74137 6.49424 -9.74137
				l -2.16475 -6.49424
				v -3.24712
				c 9.74137 0 29.2241 -22.72985 47.62445 -69.27193
				h 4.3295
				c 5.41187 0 7.57662 9.74137 7.57662 9.74137
				h 3.24712
				s 4.32949 -9.74137 12.98848 -18.40036
				h -6.49424
				c 0 -9.74137 4.3295 -8.65899 8.65899 -8.65899 0 2.16475 -5.41187 2.16475 5.41187 2.16475
				v -3.24713
				c -9.74136 -3.24712 -4.32949 -7.57661 -4.32949 -9.74136
				l -6.49425 3.24712
				v -3.24712
				c 0 -3.24712 2.16475 -6.49424 9.74137 -9.74137 0 6.49425 2.16475 9.74137 9.74136 9.74137 0 7.57662 -8.65899 15.15323 -8.65899 24.8946
				v 3.24712
				l 5.41187 9.74137
				c -15.15323 0 -30.30647 17.31798 -43.29496 49.78919
				l 7.57662 3.24713
				c 0 -3.24713 4.3295 -11.90612 12.98849 -22.72986 0 -12.98848 3.24712 -20.5651 9.74136 -20.5651
				h 7.57662
				v 3.24712
				c 1.08238 -5.41187 3.24712 -9.74136 9.74137 -15.15323
				v -9.74137
				c 9.74136 0 9.74136 -6.49424 12.98848 -23.81222 9.74137 0 12.98849 -10.82374 12.98849 -20.56511
				h -6.49424
				s -2.16475 9.74137 -7.57662 9.74137
				h -3.24712
				c -5.41187 0 -7.57662 -3.24712 -7.57662 -8.65899
				l -12.98849 4.32949
				v -6.49424
				c 0 -1.08238 8.65899 -10.82374 23.81223 -30.30647
				v 1.08237
				c 2.16475 14.07086 14.07086 24.8946 22.72985 36.80072 9.74137 10.82373 18.40036 22.72985 29.2241 32.47121
				h 1.08237
				v -1.08237
				l 1.08237 -1.08237
				c 0 9.74136 -7.57661 18.40035 -20.5651 37.88308
				h 7.57662
				c 10.82374 0 16.23561 -9.74136 16.23561 -18.40035
				h 2.16474
				v -6.49425
				l 5.41187 -6.49424 -6.49424 -4.3295 6.49424 3.24712
				h 1.08238
				c 2.16475 3.24713 4.32949 3.24713 6.49424 4.3295
				z
				m -129.88487 25.97697
				h 4.3295
				c 5.41187 0 7.57662 -2.16474 7.57662 -6.49424
				h -9.74137
				z
				m -16.23561 30.30647
				h 7.57662
				s 3.24712 -9.74136 3.24712 -15.15323
				v -3.24712
				c 0 -4.3295 0 -6.49425 -5.41187 -6.49425 0 7.57662 -5.41187 14.07086 -5.41187 18.40036
				z
				m -20.5651 42.21259
				c 9.74137 -2.16475 12.98849 -8.659 12.98849 -18.40036 -4.3295 0 -3.24712 3.24712 -12.98849 11.90611
				z
				m -3.24712 8.65899
				h 7.57662
				v -3.24713
				h -7.57662
				z
				m -9.74137 12.98848
				h 3.24712
				v -6.49424
				h -3.24712
				z
				m 5.41187 87.67229
				h -3.24712
				v 6.49424
				h 3.24712
				z
				m 0 -16.23561
				h -3.24712
				v 6.49424
				h 3.24712
				z
				m 0 -21.64748
				l -5.41187 -3.24712
				h -4.32949
				v 5.41187
				c 5.41187 0 7.57661 2.16475 7.57661 6.49424
				h 3.24713
				v -8.65899
				z
				m 10.82374 -47.62445V666.1444
				h -7.57662
				l -3.24712 11.90611 7.57662 -3.24712
				c 0 3.24712 1.08237 3.24712 3.24712 3.24712
				z
				m 3.24712 47.62445
				h -3.24712
				v 6.49425
				h 3.24712
				z
				m 0 -41.13021
				h 4.3295
				v -5.41187
				h -3.24712
				z
				m 10.82374 72.51906
				h 3.24712
				v -9.74137
				h -3.24712
				z
				m 0 -11.90612
				v -3.24712
				c -2.16475 -3.24712 -3.24712 -7.57662 -3.24712 -9.74136
				h -4.32949
				v 3.24712
				c 2.16474 3.24712 3.24712 7.57662 3.24712 9.74136
				z
				m 0 -34.63596
				h -3.24712
				v 6.49424
				h 3.24712
				z
				m -7.57661 15.15323
				h 7.57661
				v -5.41187
				c -5.41187 0 -7.57661 2.16475 -7.57661 5.41187
				z
				m 10.82373 60.61294
				l -3.24712 -5.41187
				h -7.57661
				z
				m 3.24713 -114.73163
				h -3.24713
				l -3.24712 11.90611
				h 6.49425
				z
				m 17.31798 -48.70683
				l -12.98849 -3.24712
				c -10.82374 32.47122 -17.31798 51.95395 -17.31798 57.36582 3.24712 0 9.74136 -9.74137 17.31798 -31.38885 -2.16475 0 -3.24712 -1.08237 -3.24712 -3.24712 2.16475 -1.08237 6.49424 -7.57661 16.23561 -19.48273
				z
				m 20.5651 -29.22409
				h -3.24712
				v 6.49424
				h 3.24712
				z
				m 54.1187 -46.54208
				h 6.49424
				v -6.49424
				c -4.32949 0 -6.49424 2.16474 -6.49424 6.49424
				z
				m -9.74137 -9.74137
				h 7.57662
				v -3.24712
				h -6.49424
				z
				m -20.5651 28.14173
				h 7.57662
				v -5.41187
				h -7.57662
				z
				m -14.07086 24.8946
				h -3.24712
				v 6.49424
				h 3.24712
				z
				m 20.5651 116.89638
				h -3.24712
				v 5.41187
				h 3.24712
				z
				m 12.98849 -146.12048
				l -6.49425 -4.3295
				h -6.49424
				v 9.74137
				h 9.74137
				c 0 3.24712 -6.49425 6.49424 -17.31799 9.74136
				l 3.24713 6.49425
				c -1.08238 14.07086 -6.49425 21.64748 -16.23561 21.64748
				v 6.49424
				s 6.49424 3.24712 6.49424 11.90611
				h 4.3295
				c 0 -9.74136 2.16474 -14.07086 7.57661 -30.30647
				l 6.49425 2.16475
				c 0 -2.16475 0 -3.24712 3.24712 -3.24712
				l -6.49424 -5.41187
				v -5.41187
				c 9.74136 1.08237 11.90611 -7.57662 11.90611 -19.48273
				z
				m 3.24712 -1.08237
				h 4.3295
				c 5.41187 0 7.57661 -2.16475 7.57661 -6.49425
				l -12.98848 -3.24712
				c 0 4.3295 1.08237 6.49424 1.08237 9.74137
				z
				m 7.57662 64.94243
				h -7.57662
				v 5.41187
				c 5.41187 1.08237 7.57662 -1.08237 7.57662 -5.41187
				z
				m 11.90611 -27.05935
				c -7.57662 0 -11.90611 4.3295 -15.15323 23.81223
				h 3.24712
				c 4.32949 0 6.49424 -3.24712 6.49424 -9.74137
				h 1.08237
				v -5.41187
				c 9.74137 -4.32949 4.3295 -5.41187 4.3295 -8.65899
				z
				m 138.54386 -159.10896
				v -3.24712
				h -7.57662
				v 9.74136
				c 5.41187 0 7.57662 -1.08237 7.57662 -6.49424
				z
				M 516.7768 329.52612
				v -3.24713
				h -3.24713
				c -4.32949 0 -6.49424 2.16475 -6.49424 5.41187
				v 3.24712
				h 3.24712
				c 4.3295 0 6.49425 -1.08237 6.49425 -5.41186
				z
				m 208.89816 -66.02481
				v 3.24712
				h 19.48273
				c 0 9.74136 -7.57662 8.65899 -23.81223 10.82374
				l 4.3295 8.65899
				v 3.24712
				c -20.56511 1.08237 -29.2241 4.3295 -29.2241 9.74137
				l -8.65899 -3.24713
				c -8.65899 3.24713 -14.07086 5.41187 -14.07086 8.659
				h 6.49424
				l 14.07087 -5.41187
				v 3.24712
				l -4.3295 2.16475
				h 4.3295
				v 9.74136
				l -9.74137 3.24712
				c -7.57662 9.74137 -12.98849 17.31798 -12.98849 22.72985
				l -7.57661 -3.24712
				c 1.08237 -8.65899 9.74136 -11.90611 9.74136 -11.90611
				v -1.08237
				h -3.24712
				s -4.3295 6.49424 -12.98849 10.82373
				l 3.24712 4.3295
				c 0 3.24712 -4.32949 11.90611 -12.98848 11.90611
				h -4.3295
				v 7.57662
				c -20.5651 20.5651 -34.63596 30.30647 -34.63596 38.96546
				h -6.49425
				v -10.82374
				l -18.40035 9.74137
				h -2.16475
				v -9.74137
				h -4.3295
				c -5.41187 0 -6.49424 4.3295 -6.49424 8.65899
				v 3.24712
				s 9.74137 3.24713 12.98849 6.49425
				l -3.24712 5.41187
				c 0 2.16475 1.08237 3.24712 3.24712 3.24712 -9.74137 17.31798 -12.98849 29.22409 -12.98849 29.22409
				h -6.49424
				c -5.41187 9.74137 -9.74137 17.31799 -12.98849 18.40036
				v -24.8946
				s -5.41187 3.24712 -11.90611 11.90611
				l -3.24712 -3.24712
				s 0 -2.16475 -1.08238 -2.16475
				h -5.41187
				v 1.08238
				c 0 -2.16475 -1.08237 -3.24712 -3.24712 -4.3295 -4.3295 -5.41187 -8.65899 -11.90611 -9.74136 -18.40035 -3.24713 -3.24713 -5.41187 -7.57662 -7.57662 -10.82374 -2.16475 -5.41187 -5.41187 -11.90612 -6.49425 -18.40036 0 -1.08237 -1.08237 -2.16475 -1.08237 -3.24712
				v -1.08237
				c -1.08237 -2.16475 -1.08237 -3.24713 -1.08237 -5.41187 46.54207 -37.88309 74.6838 -58.44819 85.50754 -86.58992
				h -3.24713
				c -48.70682 46.54208 -72.51905 66.02481 -72.51905 71.43668 0 6.49425 -1.08237 10.82374 -10.82374 10.82374
				h -1.08237
				v -1.08237
				c 0 -1.08238 -1.08237 -2.16475 -1.08237 -3.24712 -5.41187 -4.3295 -9.74137 -9.74137 -11.90612 -16.23561 -1.08237 -1.08238 -2.16475 -2.16475 -3.24712 -2.16475 3.24712 1.08237 8.65899 3.24712 15.15324 8.65899
				l 7.57661 3.24712
				c 7.57662 -6.49424 11.90612 -14.07086 14.07086 -22.72985 19.48273 -18.40036 32.47122 -30.30647 43.29496 -34.63597
				v -3.24712
				l -17.31798 -3.24712
				c 0 3.24712 -3.24712 9.74137 -23.81223 16.23561
				l 3.24712 -7.57662
				h -5.41187
				c -10.82374 9.74137 -18.40035 18.40036 -20.5651 18.40036
				h -7.57662
				c -1.08237 3.24712 -3.24712 4.32949 -7.57662 4.32949
				l -1.08237 -3.24712
				h 7.57662
				v -18.40035
				h -4.3295
				c -4.32949 0 -6.49424 -3.24713 -6.49424 -7.57662 8.65899 -15.15324 17.31798 -22.72985 28.14172 -22.72985
				l -3.24712 -7.57662
				c 14.07086 -18.40036 30.30647 -28.14172 45.4597 -28.14172 0 -6.49424 2.16475 -11.90611 22.72985 -16.23561
				v -3.24712
				h -9.74136
				v -6.49424
				c 9.74136 0 15.15323 -3.24713 20.5651 -11.90612 6.49425 0 20.56511 -9.74136 44.37733 -18.40035
				h 3.24712
				l 3.24713 5.41187 6.49424 -3.24713
				c 14.07086 0 35.71834 6.49425 46.54208 18.40036
				v 3.24712
				l -5.41187 7.57662
				c 10.82374 0 23.81222 2.16475 33.55359 6.49424
				v 6.49425
				l -15.15324 3.24712
				c 19.48273 12.98848 35.71834 18.40035 46.54208 18.40035
				v 3.24713
				z
				m -225.13377 47.62445
				c 0 -4.3295 -3.24712 -7.57662 -7.57662 -7.57662
				h -3.24712
				v 7.57662
				h 3.24712
				v 2.16475
				h 7.57662
				z
				m 2.16474 -16.23561
				h -3.24712
				v 6.49424
				h 3.24712
				z
				m 20.56511 -12.98849
				h -7.57662
				v 3.24713
				h 7.57662
				z
				m 17.31798 12.98849
				h -3.24712
				c -3.24712 0 -7.57662 3.24712 -9.74137 9.74137
				h 7.57662
				c 4.3295 0 6.49425 -2.16475 6.49425 -5.41187
				v -4.3295
				z
				m 20.56511 0
				h -6.49425
				c 2.16475 3.24712 3.24712 7.57662 3.24712 9.74137
				h 3.24713
				z
				m 9.74136 -24.8946
				c 2.16475 0 3.24712 -3.24712 3.24712 -3.24712
				h -6.49424
				s -4.3295 7.57662 -12.98849 12.98849
				c 4.3295 0 6.49425 3.24712 6.49425 10.82373 3.24712 0 8.65899 -5.41186 12.98848 -16.2356 -2.16475 -1.08238 -3.24712 -2.16475 -3.24712 -4.3295
				z
				m -41.13021 103.9079
				h 7.57662
				v -5.41187
				c -4.3295 0 -7.57662 1.08237 -7.57662 5.41187
				z
				m -6.49424 16.2356
				v -4.32949
				l 6.49424 3.24712
				h 3.24712
				v -3.24712
				c 0 -3.24712 -2.16474 -5.41187 -7.57661 -5.41187 -4.3295 2.16475 -7.57662 3.24712 -9.74137 3.24712 2.16475 3.24712 4.3295 6.49424 7.57662 6.49424
				z
				m 28.14172 6.49425
				h -10.82374
				c -10.82374 9.74136 -19.48273 20.5651 -19.48273 23.81222
				v 4.3295
				h 6.49424
				c 7.57662 -18.40036 14.07087 -23.81223 24.8946 -23.81223
				z
				m 81.17804 -88.75466
				c 4.3295 -2.16475 8.65899 -3.24712 9.74137 -3.24712
				v -3.24713
				h -9.74137
				z
				m -6.49424 -62.77769
				c -2.16475 -3.24712 -4.3295 -7.57662 -4.3295 -9.74136 -20.5651 7.57661 -30.30647 11.90611 -30.30647 15.15323 0 4.3295 0 6.49424 -9.74136 6.49424
				v 9.74137
				c 10.82374 -7.57662 25.97697 -14.07086 44.37733 -21.64748
				z
				m -17.31798 77.93092
				v 6.49425
				c 5.41187 -4.3295 9.74136 -6.49425 12.98848 -6.49425
				v -6.49424
				c -4.32949 4.32949 -9.74136 6.49424 -12.98848 6.49424
				z
				m -41.13021 53.03632
				h -7.57662
				v 3.24712
				h 7.57662
				z
				m 7.57662 -8.65899
				h -3.24713
				c -4.32949 0 -6.49424 3.24712 -6.49424 5.41187
				h 9.74137
				z
				m 30.30647 -35.71834
				h -6.49425
				s -6.49424 12.98849 -27.05935 29.2241
				v 3.24712
				c 9.74137 0 16.23561 -14.07086 33.5536 -32.47122
				z
				m -9.74137 42.21259
				h -7.57662
				v 3.24712
				h 7.57662
				z
				m 5.41187 2.16474
				h -3.24712
				v 6.49425
				h 3.24712
				z
				m 9.74136 -18.40035
				c 5.41187 -3.24713 10.82374 -5.41187 14.07087 -5.41187
				l -3.24713 -6.49425
				c -15.15323 6.49425 -23.81222 15.15324 -23.81222 28.14173
				l 6.49424 -3.24713
				h 7.57662
				z
				m 32.47122 -7.57662
				l -7.57662 -4.3295 -4.32949 4.3295
				z
				m 10.82374 -28.14172
				c -16.23561 0 -24.8946 9.74136 -28.14172 18.40035
				h 12.98849
				c 1.08237 -8.65899 4.32949 -10.82373 15.15323 -18.40035
				z
				m 30.30647 -6.49425
				l 3.24712 -3.24712
				h -3.24712
				z
				m -17.31798 -4.32949
				c -5.41187 0 -7.57662 3.24712 -7.57662 5.41187
				h 7.57662
				z
				m 12.98848 -92.00178
				c -2.16474 0 -6.49424 -1.08238 -9.74136 -3.24712
				l -7.57662 9.74136
				h 9.74137
				c 5.41187 0 7.57661 -2.16475 7.57661 -6.49424
				z
				M 549.24801 468.06997
				c 2.16475 5.41187 4.3295 10.82374 8.65899 16.23561 1.08238 2.16475 2.16475 4.3295 3.24713 5.41187 5.41186 -9.74136 7.57661 -16.23561 7.57661 -18.40035 -2.16475 0 -6.49424 -1.08238 -9.74136 -3.24713
				z
				M 343.59697 628.26131
				h 6.49424
				v -5.41187
				h -6.49424
				z
				m -89.83703 56.28344
				c 0 4.3295 2.16475 6.49425 7.57662 6.49425
				v -6.49425
				z
				m 12.98848 -25.97697
				h 7.57662
				s -1.08237 -3.24712 1.08238 -7.57662
				c 0 -8.65899 -1.08238 -9.74136 -10.82374 -9.74136 7.57661 -3.24712 9.74136 -6.49424 9.74136 -9.74137
				v -5.41187
				c -9.74136 2.16475 -9.74136 3.24713 -9.74136 3.24713
				v 6.49424
				l -1.08238 4.32949
				h -9.74136
				v 19.48273
				c 2.16475 0 6.49424 -3.24712 9.74136 -5.41186 2.16475 0 3.24712 4.32949 3.24712 4.32949
				z
				m 17.31799 -36.80071
				c 7.57661 0 9.74136 -5.41187 20.5651 -5.41187
				v -5.41187
				s -12.98849 0 -28.14172 3.24712
				l 4.3295 7.57662
				z
				m 18.40035 1.08237
				v -3.24712
				h -7.57661
				v 3.24712
				z
				m -24.8946 8.65899
				v 9.74137
				h 9.74137
				c -2.16475 -5.41187 -3.24712 -8.65899 -3.24712 -9.74137
				z
				m -16.2356 66.02481
				h 6.49424
				v -5.41187
				h -6.49424
				z
				m 190.4978 -62.77769
				v 6.49425
				h 3.24712
				c 5.41187 0 7.57662 -2.16475 7.57662 -6.49425
				v -9.74136
				c -7.57662 3.24712 -10.82374 6.49424 -10.82374 9.74136
				z
				M 263.5013 678.05051
				v 5.41187
				h 7.57662
				v -11.90611
				c -4.3295 0 -6.49424 3.24712 -7.57662 6.49424
				z
				m 180.75644 -28.14172
				v 6.49424
				h 7.57662
				c 0 -3.24712 -2.16475 -6.49424 -7.57662 -6.49424
				z
				m 18.40036 -27.05935
				v 3.24712
				c 4.3295 0 6.49424 -2.16474 6.49424 -6.49424
				v -3.24712
				c -4.32949 0 -6.49424 1.08237 -6.49424 6.49424
				z
				m -14.07086 8.65899
				h -3.24712
				c -4.3295 0 -6.49425 2.16475 -7.57662 6.49425
				h 3.24712
				c 4.3295 0 7.57662 -2.16475 7.57662 -6.49425
				z
				M 284.06641 686.7095
				h -7.57662
				l -3.24712 14.07086
				v 4.3295
				h 9.74136V686.7095
				z
			"
		/>
	</g>
</svg>
